<svg xmlns="http://www.w3.org/2000/svg" width="73" height="73">
    <g data-name="Group 97" transform="translate(-113.896 -88.78)">
        <rect data-name="Rectangle 19" width="73" height="73" rx="36.5" transform="translate(113.896 88.78)" style="fill:#e8edfc"/>
        <g data-name="Group 127">
            <path data-name="Icon awesome-user-alt" d="M19.521 21.961A10.98 10.98 0 1 0 8.54 10.98a10.983 10.983 0 0 0 10.981 10.981zm9.76 2.44h-4.2a13.274 13.274 0 0 1-11.118 0H9.76A9.76 9.76 0 0 0 0 34.161v1.22a3.661 3.661 0 0 0 3.66 3.66h31.722a3.661 3.661 0 0 0 3.66-3.66v-1.22a9.76 9.76 0 0 0-9.761-9.761z" transform="translate(130.521 105.788)" style="fill:#b0cbfb"/>
            <path data-name="Subtraction 2" d="M38.381 39.042h-2.993a3.665 3.665 0 0 0 3.654-3.66v-1.22a9.774 9.774 0 0 0-9.748-9.76h2.988a9.772 9.772 0 0 1 9.761 9.76v1.22a3.664 3.664 0 0 1-3.662 3.66zm-18.86-13.421a13.286 13.286 0 0 1-5.559-1.22h3a13.4 13.4 0 0 0 4.059 1.135 13.307 13.307 0 0 1-1.5.085zm3-3.66a11.111 11.111 0 0 1-1.5-.1 10.982 10.982 0 0 0 0-21.761 11.113 11.113 0 0 1 1.5-.1 10.98 10.98 0 1 1 0 21.961z" transform="translate(127.521 105.788)" style="fill:#87b6fe"/>
            <path data-name="Icon awesome-user-alt" d="M19.521 21.961A10.98 10.98 0 1 0 8.54 10.98a10.983 10.983 0 0 0 10.981 10.981zm9.76 2.44h-4.2a13.274 13.274 0 0 1-11.118 0H9.76A9.76 9.76 0 0 0 0 34.161v1.22a3.661 3.661 0 0 0 3.66 3.66h31.722a3.661 3.661 0 0 0 3.66-3.66v-1.22a9.76 9.76 0 0 0-9.761-9.761z" transform="translate(130.521 105.788)" style="fill:none;stroke:#428dff;stroke-width:1.5px"/>
        </g>
    </g>
</svg>
