<svg xmlns="http://www.w3.org/2000/svg" width="30" height="22">
    <defs>
        <clipPath id="clip-path">
            <path id="Rectangle_14" data-name="Rectangle 14" transform="translate(.103 .051)" style="fill:#fff;stroke:#707070" d="M0 0h30v22H0z"/>
        </clipPath>
        <style>
            .cls-3{fill:#f5f5f5}.cls-5{fill:#ff4b55}
        </style>
    </defs>
    <g id="Mask_Group_7" data-name="Mask Group 7" transform="translate(-.103 -.051)" style="clip-path:url(#clip-path)">
        <g id="iran" transform="translate(1.047)">
            <path id="Rectangle_15" data-name="Rectangle 15" class="cls-3" transform="translate(0 7.365)" d="M0 0h28.111v7.372H0z"/>
            <path id="Path_84" data-name="Path 84" d="M21.961 0H6.149C2.753 0 0 2.165 0 4.835v2.537h28.111V4.835c0-2.67-2.753-4.835-6.15-4.835z" style="fill:#73af00"/>
            <path id="Path_85" data-name="Path 85" class="cls-5" d="M0 21.2c0 2.67 2.753 4.835 6.149 4.835h15.812c3.4 0 6.149-2.165 6.149-4.835v-2.54H0z" transform="translate(0 -3.931)"/>
            <g id="Group_83" data-name="Group 83" transform="translate(0 6.014)">
                <path id="Path_86" data-name="Path 86" class="cls-3" d="M.5 7.72v-.01a.106.106 0 0 0-.116-.092H0v.193h.387A.106.106 0 0 0 .5 7.72z" transform="translate(0 -7.619)"/>
                <path id="Path_87" data-name="Path 87" class="cls-3" d="M.5 8.488v-.005a.106.106 0 0 0-.116-.092H.141A.106.106 0 0 1 .025 8.3v-.01a.106.106 0 0 1 .116-.09h.483a.106.106 0 0 1 .116.09v.2a.106.106 0 0 0 .116.092h.971a.106.106 0 0 0 .116-.092v-.78a.106.106 0 0 0-.116-.092h-.006a.106.106 0 0 0-.121.092v.59a.106.106 0 0 1-.116.092h-.01a.106.106 0 0 1-.112-.092v-.59a.106.106 0 0 0-.116-.092.106.106 0 0 0-.116.092v.59a.106.106 0 0 1-.116.092H1.1A.106.106 0 0 1 .983 8.3v-.59a.106.106 0 0 0-.116-.092h-.01a.106.106 0 0 0-.117.092v.2A.106.106 0 0 1 .624 8H0v.575h.387A.106.106 0 0 0 .5 8.488z" transform="translate(0 -7.619)"/>
                <path id="Path_88" data-name="Path 88" class="cls-3" d="M6.605 7.619H6.6a.106.106 0 0 0-.116.092V8.3a.106.106 0 0 1-.116.092.106.106 0 0 1-.122-.092v-.59a.106.106 0 0 0-.116-.092h-.01A.106.106 0 0 0 6 7.71v.59a.106.106 0 0 1-.116.092h-.01a.106.106 0 0 1-.113-.092v-.59a.106.106 0 0 0-.116-.092h-.007a.106.106 0 0 0-.116.092v.2A.106.106 0 0 1 5.4 8h-.72a.106.106 0 0 0-.116.092v.392a.106.106 0 0 0 .116.092h.489a.106.106 0 0 0 .116-.092v-.001a.106.106 0 0 0-.116-.092h-.25A.106.106 0 0 1 4.8 8.3v-.01a.106.106 0 0 1 .119-.09H5.4a.106.106 0 0 1 .116.092v.2a.106.106 0 0 0 .116.092H6.6a.106.106 0 0 0 .116-.092V7.71a.106.106 0 0 0-.111-.091z" transform="translate(.018 -7.619)"/>
                <path id="Path_89" data-name="Path 89" class="cls-3" d="M2.775 8.786a.106.106 0 0 0 .116-.092v-.005a.106.106 0 0 0-.116-.089h-.007a.106.106 0 0 0-.116.092v.005a.106.106 0 0 0 .116.092z" transform="translate(.01 -7.825)"/>
                <path id="Path_90" data-name="Path 90" class="cls-3" d="M2.291 7.812h2.887a.106.106 0 0 0 .116-.092v-.01a.106.106 0 0 0-.116-.092H2.291a.106.106 0 0 0-.116.092v.01a.106.106 0 0 0 .116.092z" transform="translate(.009 -7.619)"/>
                <path id="Path_91" data-name="Path 91" class="cls-3" d="M4.217 8.108h-.486a.106.106 0 0 0-.116.092v.01a.106.106 0 0 0 .116.092h.246a.106.106 0 0 1 .116.092V8.4a.106.106 0 0 1-.116.092h-.488a.106.106 0 0 1-.117-.092v-.2a.106.106 0 0 0-.116-.092h-.965a.106.106 0 0 0-.116.092v.392a.106.106 0 0 0 .116.092H2.3a.106.106 0 0 0 .116-.092v-.2a.106.106 0 0 1 .115-.092h.486a.106.106 0 0 1 .116.092v.2a.106.106 0 0 0 .116.092h.968a.106.106 0 0 0 .116-.092V8.2a.106.106 0 0 0-.116-.092z" transform="translate(.009 -7.722)"/>
                <path id="Path_92" data-name="Path 92" class="cls-3" d="M7.552 8.786a.106.106 0 0 0 .116-.092v-.005a.106.106 0 0 0-.116-.089h-.006a.106.106 0 0 0-.116.092v.005a.106.106 0 0 0 .116.092z" transform="translate(.029 -7.825)"/>
                <path id="Path_93" data-name="Path 93" class="cls-3" d="M7.068 7.812h2.884a.106.106 0 0 0 .116-.092v-.01a.106.106 0 0 0-.116-.092H7.068a.106.106 0 0 0-.116.092v.01a.106.106 0 0 0 .116.092z" transform="translate(.027 -7.619)"/>
                <path id="Path_94" data-name="Path 94" class="cls-3" d="M11.383 7.619h-.007a.106.106 0 0 0-.116.092V8.3a.106.106 0 0 1-.116.092h-.007a.106.106 0 0 1-.117-.092v-.59a.106.106 0 0 0-.116-.092h-.01a.106.106 0 0 0-.116.092v.59a.106.106 0 0 1-.116.092.106.106 0 0 1-.116-.092v-.59a.106.106 0 0 0-.116-.092h-.007a.106.106 0 0 0-.116.092v.2a.106.106 0 0 1-.122.09h-.731a.106.106 0 0 0-.116.092v.392a.106.106 0 0 0 .116.092h.489a.106.106 0 0 0 .116-.092v-.001a.106.106 0 0 0-.116-.092H9.7a.106.106 0 0 1-.12-.091v-.01a.106.106 0 0 1 .12-.09h.489a.106.106 0 0 1 .116.092v.2a.106.106 0 0 0 .116.092h.965a.106.106 0 0 0 .116-.092V7.71a.106.106 0 0 0-.119-.091z" transform="translate(.037 -7.619)"/>
                <path id="Path_95" data-name="Path 95" class="cls-3" d="M8.994 8.108h-.489a.106.106 0 0 0-.116.092v.01a.106.106 0 0 0 .116.092h.246a.106.106 0 0 1 .116.092V8.4a.106.106 0 0 1-.116.092h-.485a.106.106 0 0 1-.117-.092v-.2a.106.106 0 0 0-.116-.092h-.965a.106.106 0 0 0-.116.092v.392a.106.106 0 0 0 .116.092h.007a.106.106 0 0 0 .116-.092v-.2a.106.106 0 0 1 .117-.092h.486a.106.106 0 0 1 .116.092v.2a.106.106 0 0 0 .116.092h.968a.106.106 0 0 0 .116-.092V8.2a.106.106 0 0 0-.116-.092z" transform="translate(.027 -7.722)"/>
                <path id="Path_96" data-name="Path 96" class="cls-3" d="M16.16 7.619h-.007a.106.106 0 0 0-.116.092V8.3a.106.106 0 0 1-.116.092h-.007A.106.106 0 0 1 15.8 8.3v-.59a.106.106 0 0 0-.116-.092h-.007a.106.106 0 0 0-.116.092v.59a.106.106 0 0 1-.116.092h-.007a.106.106 0 0 1-.116-.092v-.59a.106.106 0 0 0-.116-.092H15.2a.106.106 0 0 0-.116.092v.2a.106.106 0 0 1-.122.09h-.728a.106.106 0 0 0-.116.092v.392a.106.106 0 0 0 .116.092h.489a.106.106 0 0 0 .116-.092v-.001a.106.106 0 0 0-.116-.092h-.249a.106.106 0 0 1-.116-.092V8.29a.106.106 0 0 1 .116-.092h.489a.106.106 0 0 1 .116.092v.2a.106.106 0 0 0 .116.092h.965a.106.106 0 0 0 .116-.092v-.78a.106.106 0 0 0-.116-.091z" transform="translate(.056 -7.619)"/>
                <path id="Path_97" data-name="Path 97" class="cls-3" d="M13.771 8.108h-.489a.106.106 0 0 0-.116.092v.01a.106.106 0 0 0 .116.092h.249a.106.106 0 0 1 .116.092V8.4a.106.106 0 0 1-.116.092h-.486a.106.106 0 0 1-.115-.092v-.2a.106.106 0 0 0-.116-.092h-.968a.106.106 0 0 0-.116.092v.392a.106.106 0 0 0 .116.092h.007a.106.106 0 0 0 .116-.092v-.2a.106.106 0 0 1 .116-.092h.486a.106.106 0 0 1 .116.092v.2a.106.106 0 0 0 .116.092h.968a.106.106 0 0 0 .116-.092V8.2a.106.106 0 0 0-.116-.092z" transform="translate(.046 -7.722)"/>
                <path id="Path_98" data-name="Path 98" class="cls-3" d="M11.845 7.812h2.887a.106.106 0 0 0 .116-.092v-.01a.106.106 0 0 0-.116-.092h-2.887a.106.106 0 0 0-.116.092v.01a.106.106 0 0 0 .116.092z" transform="translate(.046 -7.619)"/>
                <path id="Path_99" data-name="Path 99" class="cls-3" d="M12.329 8.786a.106.106 0 0 0 .116-.092v-.005a.106.106 0 0 0-.116-.092.106.106 0 0 0-.116.092v.005a.106.106 0 0 0 .116.092z" transform="translate(.048 -7.825)"/>
                <path id="Path_100" data-name="Path 100" class="cls-3" d="M18.548 8.108h-.486a.106.106 0 0 0-.116.092v.01a.106.106 0 0 0 .116.092h.243a.106.106 0 0 1 .116.092V8.4a.106.106 0 0 1-.116.092h-.483a.106.106 0 0 1-.116-.092v-.2a.106.106 0 0 0-.116-.092h-.968a.106.106 0 0 0-.116.092v.392a.106.106 0 0 0 .116.092h.007a.106.106 0 0 0 .116-.092v-.2a.106.106 0 0 1 .116-.092h.486a.106.106 0 0 1 .116.092v.2a.106.106 0 0 0 .116.092h.968a.106.106 0 0 0 .116-.092V8.2a.106.106 0 0 0-.115-.092z" transform="translate(.065 -7.722)"/>
                <path id="Path_101" data-name="Path 101" class="cls-3" d="M20.937 7.619h-.007a.106.106 0 0 0-.116.092V8.3a.106.106 0 0 1-.116.092h-.007a.106.106 0 0 1-.116-.092v-.59a.106.106 0 0 0-.116-.092h-.007a.106.106 0 0 0-.116.092v.59a.106.106 0 0 1-.116.092h-.007A.106.106 0 0 1 20.1 8.3v-.59a.106.106 0 0 0-.116-.092h-.007a.106.106 0 0 0-.116.092v.2a.106.106 0 0 1-.122.09h-.725a.106.106 0 0 0-.114.1v.392a.106.106 0 0 0 .116.092h.484a.106.106 0 0 0 .116-.092v-.009a.106.106 0 0 0-.116-.092h-.249a.106.106 0 0 1-.116-.092V8.29a.106.106 0 0 1 .116-.092h.489a.106.106 0 0 1 .116.092v.2a.106.106 0 0 0 .116.092h.965a.106.106 0 0 0 .116-.092v-.78a.106.106 0 0 0-.116-.091z" transform="translate(.075 -7.619)"/>
                <path id="Path_102" data-name="Path 102" class="cls-3" d="M17.107 8.786a.106.106 0 0 0 .116-.092v-.005a.106.106 0 0 0-.116-.092.106.106 0 0 0-.116.092v.005a.106.106 0 0 0 .116.092z" transform="translate(.067 -7.825)"/>
                <path id="Path_103" data-name="Path 103" class="cls-3" d="M16.623 7.812h2.887a.106.106 0 0 0 .116-.092v-.01a.106.106 0 0 0-.116-.092h-2.887a.106.106 0 0 0-.116.092v.01a.106.106 0 0 0 .116.092z" transform="translate(.065 -7.619)"/>
                <path id="Path_104" data-name="Path 104" class="cls-3" d="M21.887 8.786A.106.106 0 0 0 22 8.694v-.005a.106.106 0 0 0-.116-.092h-.01a.106.106 0 0 0-.116.092v.005a.106.106 0 0 0 .116.092z" transform="translate(.086 -7.825)"/>
                <path id="Path_105" data-name="Path 105" class="cls-3" d="M21.4 7.812h2.887a.106.106 0 0 0 .113-.092v-.01a.106.106 0 0 0-.116-.092H21.4a.106.106 0 0 0-.116.092v.01a.106.106 0 0 0 .116.092z" transform="translate(.084 -7.619)"/>
                <path id="Path_106" data-name="Path 106" class="cls-3" d="M25.714 7.619a.106.106 0 0 0-.116.092V8.3a.106.106 0 0 1-.116.092h-.01a.106.106 0 0 1-.116-.092v-.59a.106.106 0 0 0-.116-.092h-.007a.106.106 0 0 0-.116.092v.59a.106.106 0 0 1-.117.091h-.007a.106.106 0 0 1-.116-.092V7.71a.106.106 0 0 0-.116-.092h-.011a.106.106 0 0 0-.116.092v.2a.106.106 0 0 1-.117.09h-.725a.106.106 0 0 0-.116.092v.392a.106.106 0 0 0 .116.092h.486a.106.106 0 0 0 .116-.092v-.001a.106.106 0 0 0-.116-.092h-.243a.106.106 0 0 1-.116-.092V8.29a.106.106 0 0 1 .116-.092h.483a.106.106 0 0 1 .116.092v.2a.106.106 0 0 0 .116.092h.965a.106.106 0 0 0 .116-.092v-.78a.106.106 0 0 0-.117-.091z" transform="translate(.094 -7.619)"/>
                <path id="Path_107" data-name="Path 107" class="cls-3" d="M23.326 8.108h-.486a.106.106 0 0 0-.116.092v.01a.106.106 0 0 0 .116.092h.249a.106.106 0 0 1 .116.092V8.4a.106.106 0 0 1-.116.092H22.6a.106.106 0 0 1-.116-.092v-.2a.106.106 0 0 0-.116-.092H21.4a.106.106 0 0 0-.116.092v.392a.106.106 0 0 0 .116.092h.007a.106.106 0 0 0 .116-.092v-.2a.106.106 0 0 1 .117-.092h.489a.106.106 0 0 1 .116.092v.2a.106.106 0 0 0 .116.092h.965a.106.106 0 0 0 .116-.092V8.2a.106.106 0 0 0-.116-.092z" transform="translate(.084 -7.722)"/>
                <path id="Path_108" data-name="Path 108" class="cls-3" d="M27.5 8.2v.01a.106.106 0 0 0 .116.092h.246a.106.106 0 0 1 .116.092V8.4a.106.106 0 0 1-.116.092h-.489a.106.106 0 0 1-.116-.092v-.2a.106.106 0 0 0-.116-.092h-.961a.106.106 0 0 0-.116.092v.392a.106.106 0 0 0 .116.092.106.106 0 0 0 .116-.092v-.2a.106.106 0 0 1 .116-.092h.488a.106.106 0 0 1 .116.092v.2a.106.106 0 0 0 .116.092h.872v-.576h-.384a.106.106 0 0 0-.12.092z" transform="translate(.103 -7.722)"/>
                <path id="Path_109" data-name="Path 109" class="cls-3" d="M26.064 7.71v.01a.106.106 0 0 0 .116.092h1.827v-.193H26.18a.106.106 0 0 0-.116.091z" transform="translate(.103 -7.619)"/>
                <path id="Path_110" data-name="Path 110" class="cls-3" d="M26.657 8.786h.007a.106.106 0 0 0 .116-.092v-.005a.106.106 0 0 0-.116-.092h-.007a.106.106 0 0 0-.116.092v.005a.106.106 0 0 0 .116.092z" transform="translate(.105 -7.825)"/>
                <path id="Path_111" data-name="Path 111" class="cls-3" d="M1.944 9.381v-.2a.106.106 0 0 0-.116-.092H0v.386h1.827a.106.106 0 0 0 .117-.094z" transform="translate(0 -7.928)"/>
                <path id="Path_112" data-name="Path 112" class="cls-3" d="M4.217 9.087H2.291a.106.106 0 0 0-.116.092v.2a.106.106 0 0 0 .116.092h1.926a.106.106 0 0 0 .116-.092v-.2a.106.106 0 0 0-.116-.092z" transform="translate(.009 -7.928)"/>
                <path id="Path_113" data-name="Path 113" class="cls-3" d="M6.605 9.087H4.68a.106.106 0 0 0-.116.092v.2a.106.106 0 0 0 .116.092h1.925a.106.106 0 0 0 .116-.092v-.2a.106.106 0 0 0-.116-.092z" transform="translate(.018 -7.928)"/>
                <path id="Path_114" data-name="Path 114" class="cls-3" d="M8.994 9.087H7.068a.106.106 0 0 0-.116.092v.2a.106.106 0 0 0 .116.092h1.926a.106.106 0 0 0 .116-.092v-.2a.106.106 0 0 0-.116-.092z" transform="translate(.027 -7.928)"/>
                <path id="Path_115" data-name="Path 115" class="cls-3" d="M11.383 9.087H9.454a.106.106 0 0 0-.116.092v.2a.106.106 0 0 0 .116.092h1.929a.106.106 0 0 0 .116-.092v-.2a.106.106 0 0 0-.116-.092z" transform="translate(.037 -7.928)"/>
                <path id="Path_116" data-name="Path 116" class="cls-3" d="M13.771 9.087h-1.926a.106.106 0 0 0-.116.092v.2a.106.106 0 0 0 .116.092h1.926a.106.106 0 0 0 .116-.092v-.2a.106.106 0 0 0-.116-.092z" transform="translate(.046 -7.928)"/>
                <path id="Path_117" data-name="Path 117" class="cls-3" d="M16.16 9.087h-1.926a.106.106 0 0 0-.116.092v.2a.106.106 0 0 0 .116.092h1.926a.106.106 0 0 0 .116-.092v-.2a.106.106 0 0 0-.116-.092z" transform="translate(.056 -7.928)"/>
                <path id="Path_118" data-name="Path 118" class="cls-3" d="M20.937 9.087h-1.922a.106.106 0 0 0-.116.092v.2a.106.106 0 0 0 .116.092h1.923a.106.106 0 0 0 .116-.092v-.2a.106.106 0 0 0-.117-.092z" transform="translate(.075 -7.928)"/>
                <path id="Path_119" data-name="Path 119" class="cls-3" d="M18.548 9.087h-1.925a.106.106 0 0 0-.116.092v.2a.106.106 0 0 0 .116.092h1.926a.106.106 0 0 0 .116-.092v-.2a.106.106 0 0 0-.117-.092z" transform="translate(.065 -7.928)"/>
                <path id="Path_120" data-name="Path 120" class="cls-3" d="M23.326 9.087H21.4a.106.106 0 0 0-.116.092v.2a.106.106 0 0 0 .116.092h1.926a.106.106 0 0 0 .116-.092v-.2a.106.106 0 0 0-.116-.092z" transform="translate(.084 -7.928)"/>
                <path id="Path_121" data-name="Path 121" class="cls-3" d="M25.714 9.087h-1.922a.106.106 0 0 0-.116.092v.2a.106.106 0 0 0 .116.092h1.922a.106.106 0 0 0 .116-.092v-.2a.106.106 0 0 0-.116-.092z" transform="translate(.093 -7.928)"/>
                <path id="Path_122" data-name="Path 122" class="cls-3" d="M26.064 9.178v.2a.106.106 0 0 0 .116.092h1.827v-.383H26.18a.106.106 0 0 0-.116.091z" transform="translate(.103 -7.928)"/>
                <path id="Path_123" data-name="Path 123" class="cls-3" d="M27.5 19.256v.005a.106.106 0 0 0 .116.092h.246a.106.106 0 0 1 .116.092v.01a.106.106 0 0 1-.116.092h-.483a.106.106 0 0 1-.116-.092v-.2a.106.106 0 0 0-.116-.092h-.967a.106.106 0 0 0-.116.092v.778a.106.106 0 0 0 .116.092h.007a.106.106 0 0 0 .116-.092v-.589a.106.106 0 0 1 .116-.092h.01a.106.106 0 0 1 .116.092v.589a.106.106 0 0 0 .116.092.106.106 0 0 0 .116-.092v-.589a.106.106 0 0 1 .116-.092h.01a.106.106 0 0 1 .116.092v.589a.106.106 0 0 0 .116.092h.01a.106.106 0 0 0 .116-.092v-.2a.106.106 0 0 1 .116-.092h.624v-.575h-.381a.106.106 0 0 0-.12.09z" transform="translate(.103 -10.051)"/>
                <path id="Path_124" data-name="Path 124" class="cls-3" d="M27.5 20.228v.01a.106.106 0 0 0 .116.092H28v-.193h-.387a.106.106 0 0 0-.113.091z" transform="translate(.109 -10.256)"/>
                <path id="Path_125" data-name="Path 125" class="cls-3" d="M25.233 19.352a.106.106 0 0 0 .116-.092v-.005a.106.106 0 0 0-.116-.092h-.007a.106.106 0 0 0-.116.092v.005a.106.106 0 0 0 .116.092z" transform="translate(.099 -10.051)"/>
                <path id="Path_126" data-name="Path 126" class="cls-3" d="M23.445 19.647v-.392a.106.106 0 0 0-.116-.092h-.489a.106.106 0 0 0-.116.092v.005a.106.106 0 0 0 .116.092h.249a.106.106 0 0 1 .116.092v.01a.106.106 0 0 1-.116.092H22.6a.106.106 0 0 1-.116-.092v-.2a.106.106 0 0 0-.116-.092H21.4a.106.106 0 0 0-.116.092v.778a.106.106 0 0 0 .116.092h.007a.106.106 0 0 0 .116-.092v-.589a.106.106 0 0 1 .116-.092.106.106 0 0 1 .116.092v.589a.106.106 0 0 0 .116.092h.01a.106.106 0 0 0 .116-.092v-.589a.106.106 0 0 1 .116-.092h.01a.106.106 0 0 1 .116.092v.589a.106.106 0 0 0 .116.092h.007a.106.106 0 0 0 .116-.092v-.2a.106.106 0 0 1 .116-.092h.725a.106.106 0 0 0 .126-.093z" transform="translate(.084 -10.051)"/>
                <path id="Path_127" data-name="Path 127" class="cls-3" d="M25.721 20.137h-2.887a.106.106 0 0 0-.116.092v.01a.106.106 0 0 0 .116.092h2.887a.106.106 0 0 0 .116-.092v-.01a.106.106 0 0 0-.116-.092z" transform="translate(.09 -10.256)"/>
                <path id="Path_128" data-name="Path 128" class="cls-3" d="M25.717 19.164h-.007a.106.106 0 0 0-.116.092v.2a.106.106 0 0 1-.116.092h-.486a.106.106 0 0 1-.116-.092v-.2a.106.106 0 0 0-.116-.092h-.968a.106.106 0 0 0-.116.092v.392a.106.106 0 0 0 .116.092h.486a.106.106 0 0 0 .116-.092v-.01a.106.106 0 0 0-.116-.092h-.246a.106.106 0 0 1-.116-.092v-.01a.106.106 0 0 1 .116-.092h.489a.106.106 0 0 1 .116.092v.2a.106.106 0 0 0 .116.092h.965a.106.106 0 0 0 .116-.092v-.392a.106.106 0 0 0-.117-.088z" transform="translate(.094 -10.051)"/>
                <path id="Path_129" data-name="Path 129" class="cls-3" d="M18.671 19.647v-.392a.106.106 0 0 0-.116-.092h-.489a.106.106 0 0 0-.116.092v.005a.106.106 0 0 0 .116.092h.246a.106.106 0 0 1 .116.092v.01a.106.106 0 0 1-.116.092h-.489a.106.106 0 0 1-.116-.092v-.2a.106.106 0 0 0-.116-.092h-.965a.106.106 0 0 0-.116.092v.778a.106.106 0 0 0 .116.092h.007a.106.106 0 0 0 .116-.092v-.589a.106.106 0 0 1 .116-.092h.007a.106.106 0 0 1 .116.092v.589a.106.106 0 0 0 .116.092h.01a.106.106 0 0 0 .116-.092v-.589a.106.106 0 0 1 .116-.092.106.106 0 0 1 .116.092v.589a.106.106 0 0 0 .116.092h.007a.106.106 0 0 0 .116-.092v-.2a.106.106 0 0 1 .116-.092h.731a.106.106 0 0 0 .123-.093z" transform="translate(.065 -10.051)"/>
                <path id="Path_130" data-name="Path 130" class="cls-3" d="M20.944 20.137H18.06a.106.106 0 0 0-.116.092v.01a.106.106 0 0 0 .116.092h2.884a.106.106 0 0 0 .116-.092v-.01a.106.106 0 0 0-.116-.092z" transform="translate(.071 -10.256)"/>
                <path id="Path_131" data-name="Path 131" class="cls-3" d="M20.455 19.352a.106.106 0 0 0 .116-.092v-.005a.106.106 0 0 0-.116-.092h-.007a.106.106 0 0 0-.116.092v.005a.106.106 0 0 0 .116.092z" transform="translate(.08 -10.051)"/>
                <path id="Path_132" data-name="Path 132" class="cls-3" d="M20.94 19.164h-.007a.106.106 0 0 0-.116.092v.2a.106.106 0 0 1-.116.092h-.486a.106.106 0 0 1-.116-.092v-.2a.106.106 0 0 0-.116-.092h-.968a.106.106 0 0 0-.116.092v.392a.106.106 0 0 0 .116.092h.485a.106.106 0 0 0 .116-.092v-.01a.106.106 0 0 0-.116-.092h-.246a.106.106 0 0 1-.116-.092v-.01a.106.106 0 0 1 .116-.092h.486a.106.106 0 0 1 .116.092v.2a.106.106 0 0 0 .116.092h.965a.106.106 0 0 0 .116-.092v-.392a.106.106 0 0 0-.113-.088z" transform="translate(.075 -10.051)"/>
                <path id="Path_133" data-name="Path 133" class="cls-3" d="M13.891 19.647v-.392a.106.106 0 0 0-.116-.092h-.489a.106.106 0 0 0-.116.092v.005a.106.106 0 0 0 .116.092h.249a.106.106 0 0 1 .116.092v.01a.106.106 0 0 1-.116.092h-.489a.106.106 0 0 1-.116-.092v-.2a.106.106 0 0 0-.116-.092h-.965a.106.106 0 0 0-.116.092v.778a.106.106 0 0 0 .116.092h.007a.106.106 0 0 0 .116-.092v-.589a.106.106 0 0 1 .116-.092h.007a.106.106 0 0 1 .116.092v.589a.106.106 0 0 0 .116.092h.007a.106.106 0 0 0 .116-.092v-.589a.106.106 0 0 1 .116-.092h.007a.106.106 0 0 1 .116.092v.589a.106.106 0 0 0 .116.092h.007a.106.106 0 0 0 .116-.092v-.2a.106.106 0 0 1 .116-.092h.728a.106.106 0 0 0 .119-.093z" transform="translate(.046 -10.051)"/>
                <path id="Path_134" data-name="Path 134" class="cls-3" d="M15.675 19.352a.106.106 0 0 0 .116-.092v-.005a.106.106 0 0 0-.116-.092.106.106 0 0 0-.116.092v.005a.106.106 0 0 0 .116.092z" transform="translate(.061 -10.051)"/>
                <path id="Path_135" data-name="Path 135" class="cls-3" d="M16.163 19.164h-.007a.106.106 0 0 0-.116.092v.2a.106.106 0 0 1-.116.092h-.486a.106.106 0 0 1-.116-.092v-.2a.106.106 0 0 0-.116-.092h-.968a.106.106 0 0 0-.116.092v.392a.106.106 0 0 0 .116.092h.489a.106.106 0 0 0 .116-.092v-.01a.106.106 0 0 0-.116-.092h-.249a.106.106 0 0 1-.116-.092v-.01a.106.106 0 0 1 .116-.092h.486a.106.106 0 0 1 .116.092v.2a.106.106 0 0 0 .116.092h.968a.106.106 0 0 0 .116-.092v-.392a.106.106 0 0 0-.117-.088z" transform="translate(.056 -10.051)"/>
                <path id="Path_136" data-name="Path 136" class="cls-3" d="M16.167 20.137H13.28a.106.106 0 0 0-.116.092v.01a.106.106 0 0 0 .116.092h2.887a.106.106 0 0 0 .116-.092v-.01a.106.106 0 0 0-.116-.092z" transform="translate(.052 -10.256)"/>
                <path id="Path_137" data-name="Path 137" class="cls-3" d="M11.386 19.164h-.007a.106.106 0 0 0-.116.092v.2a.106.106 0 0 1-.116.092h-.486a.106.106 0 0 1-.116-.092v-.2a.106.106 0 0 0-.116-.092H9.46a.106.106 0 0 0-.116.092v.392a.106.106 0 0 0 .116.092h.486a.106.106 0 0 0 .116-.092v-.01a.106.106 0 0 0-.116-.092H9.7a.106.106 0 0 1-.116-.092v-.01a.106.106 0 0 1 .116-.092h.483a.106.106 0 0 1 .116.092v.2a.106.106 0 0 0 .116.092h.968a.106.106 0 0 0 .116-.092v-.392a.106.106 0 0 0-.113-.088z" transform="translate(.037 -10.051)"/>
                <path id="Path_138" data-name="Path 138" class="cls-3" d="M10.9 19.352a.106.106 0 0 0 .116-.092v-.005a.106.106 0 0 0-.116-.092.106.106 0 0 0-.116.092v.005a.106.106 0 0 0 .116.092z" transform="translate(.043 -10.051)"/>
                <path id="Path_139" data-name="Path 139" class="cls-3" d="M11.389 20.137H8.5a.106.106 0 0 0-.116.092v.01a.106.106 0 0 0 .116.092h2.887a.106.106 0 0 0 .116-.092v-.01a.106.106 0 0 0-.114-.092z" transform="translate(.033 -10.256)"/>
                <path id="Path_140" data-name="Path 140" class="cls-3" d="M9.11 19.647v-.392a.106.106 0 0 0-.116-.092h-.486a.106.106 0 0 0-.116.092v.005a.106.106 0 0 0 .116.092h.249a.106.106 0 0 1 .116.092v.01a.106.106 0 0 1-.116.092h-.488a.106.106 0 0 1-.116-.092v-.2a.106.106 0 0 0-.116-.092h-.966a.106.106 0 0 0-.116.092v.778a.106.106 0 0 0 .116.092h.007a.106.106 0 0 0 .116-.092v-.589a.106.106 0 0 1 .116-.092h.007a.106.106 0 0 1 .116.092v.589a.106.106 0 0 0 .116.092h.007a.106.106 0 0 0 .116-.092v-.589a.106.106 0 0 1 .116-.092H7.8a.106.106 0 0 1 .116.092v.589a.106.106 0 0 0 .116.092h.007a.106.106 0 0 0 .116-.092v-.2a.106.106 0 0 1 .116-.092h.725a.106.106 0 0 0 .114-.093z" transform="translate(.027 -10.051)"/>
                <path id="Path_141" data-name="Path 141" class="cls-3" d="M6.124 19.352a.106.106 0 0 0 .116-.092v-.005a.106.106 0 0 0-.116-.092h-.01a.106.106 0 0 0-.114.093v.005a.106.106 0 0 0 .116.092z" transform="translate(.024 -10.051)"/>
                <path id="Path_142" data-name="Path 142" class="cls-3" d="M6.608 19.164H6.6a.106.106 0 0 0-.116.092v.2a.106.106 0 0 1-.116.092H5.88a.106.106 0 0 1-.116-.092v-.2a.106.106 0 0 0-.116-.092h-.965a.106.106 0 0 0-.116.092v.392a.106.106 0 0 0 .116.092h.486a.106.106 0 0 0 .116-.092v-.01a.106.106 0 0 0-.116-.092h-.25a.106.106 0 0 1-.116-.092v-.01a.106.106 0 0 1 .116-.092h.492a.106.106 0 0 1 .116.092v.2a.106.106 0 0 0 .116.092h.965a.106.106 0 0 0 .116-.092v-.392a.106.106 0 0 0-.116-.088z" transform="translate(.018 -10.051)"/>
                <path id="Path_143" data-name="Path 143" class="cls-3" d="M4.333 19.647v-.392a.106.106 0 0 0-.116-.092h-.486a.106.106 0 0 0-.116.092v.005a.106.106 0 0 0 .116.092h.243a.106.106 0 0 1 .116.092v.01a.106.106 0 0 1-.116.092h-.482a.106.106 0 0 1-.116-.092v-.2a.106.106 0 0 0-.116-.092h-.966a.106.106 0 0 0-.116.092v.778a.106.106 0 0 0 .116.092.106.106 0 0 0 .116-.092v-.589a.106.106 0 0 1 .116-.092h.01a.106.106 0 0 1 .116.092v.589a.106.106 0 0 0 .116.092h.012a.106.106 0 0 0 .116-.092v-.589a.106.106 0 0 1 .116-.092h.007a.106.106 0 0 1 .116.092v.589a.106.106 0 0 0 .116.092h.007a.106.106 0 0 0 .116-.092v-.2a.106.106 0 0 1 .116-.092h.725a.106.106 0 0 0 .118-.093z" transform="translate(.009 -10.051)"/>
                <path id="Path_144" data-name="Path 144" class="cls-3" d="M6.612 20.137H3.725a.106.106 0 0 0-.116.092v.01a.106.106 0 0 0 .116.092h2.887a.106.106 0 0 0 .116-.092v-.01a.106.106 0 0 0-.116-.092z" transform="translate(.014 -10.256)"/>
                <path id="Path_145" data-name="Path 145" class="cls-3" d="M.5 19.647v-.01a.106.106 0 0 0-.116-.092H.141a.106.106 0 0 1-.116-.092v-.01a.106.106 0 0 1 .116-.092H.63a.106.106 0 0 1 .116.092v.2a.106.106 0 0 0 .116.092h.965a.106.106 0 0 0 .116-.092v-.392a.106.106 0 0 0-.116-.092.106.106 0 0 0-.116.092v.2a.106.106 0 0 1-.116.092h-.49a.106.106 0 0 1-.116-.092v-.2a.106.106 0 0 0-.116-.092H0v.575h.387a.106.106 0 0 0 .113-.087z" transform="translate(0 -10.051)"/>
                <path id="Path_146" data-name="Path 146" class="cls-3" d="M1.944 20.238v-.01a.106.106 0 0 0-.116-.092H0v.193h1.827a.106.106 0 0 0 .117-.091z" transform="translate(0 -10.256)"/>
                <path id="Path_147" data-name="Path 147" class="cls-3" d="M1.344 19.164h-.007a.106.106 0 0 0-.116.092v.005a.106.106 0 0 0 .116.092h.007a.106.106 0 0 0 .116-.092v-.005a.106.106 0 0 0-.116-.092z" transform="translate(.005 -10.051)"/>
                <path id="Path_148" data-name="Path 148" class="cls-3" d="M26.064 18.516v.2a.106.106 0 0 0 .116.092h1.827v-.386H26.18a.106.106 0 0 0-.116.094z" transform="translate(.103 -9.895)"/>
                <path id="Path_149" data-name="Path 149" class="cls-3" d="M21.4 18.81h1.926a.106.106 0 0 0 .116-.092v-.2a.106.106 0 0 0-.116-.092H21.4a.106.106 0 0 0-.116.092v.2a.106.106 0 0 0 .116.092z" transform="translate(.084 -9.895)"/>
                <path id="Path_150" data-name="Path 150" class="cls-3" d="M25.717 18.424h-1.925a.106.106 0 0 0-.116.092v.2a.106.106 0 0 0 .116.092h1.926a.106.106 0 0 0 .116-.092v-.2a.106.106 0 0 0-.117-.092z" transform="translate(.093 -9.895)"/>
                <path id="Path_151" data-name="Path 151" class="cls-3" d="M20.94 18.424h-1.925a.106.106 0 0 0-.116.092v.2a.106.106 0 0 0 .116.092h1.925a.106.106 0 0 0 .116-.092v-.2a.106.106 0 0 0-.116-.092z" transform="translate(.075 -9.895)"/>
                <path id="Path_152" data-name="Path 152" class="cls-3" d="M16.626 18.81h1.929a.106.106 0 0 0 .116-.092v-.2a.106.106 0 0 0-.116-.092h-1.929a.106.106 0 0 0-.116.092v.2a.106.106 0 0 0 .116.092z" transform="translate(.065 -9.895)"/>
                <path id="Path_153" data-name="Path 153" class="cls-3" d="M11.849 18.81h1.926a.106.106 0 0 0 .116-.092v-.2a.106.106 0 0 0-.116-.092h-1.926a.106.106 0 0 0-.116.092v.2a.106.106 0 0 0 .116.092z" transform="translate(.046 -9.895)"/>
                <path id="Path_154" data-name="Path 154" class="cls-3" d="M16.163 18.424h-1.926a.106.106 0 0 0-.116.092v.2a.106.106 0 0 0 .116.092h1.926a.106.106 0 0 0 .116-.092v-.2a.106.106 0 0 0-.116-.092z" transform="translate(.056 -9.895)"/>
                <path id="Path_155" data-name="Path 155" class="cls-3" d="M11.386 18.424H9.46a.106.106 0 0 0-.116.092v.2a.106.106 0 0 0 .116.092h1.926a.106.106 0 0 0 .116-.092v-.2a.106.106 0 0 0-.116-.092z" transform="translate(.037 -9.895)"/>
                <path id="Path_156" data-name="Path 156" class="cls-3" d="M7.071 18.81h1.923a.106.106 0 0 0 .116-.092v-.2a.106.106 0 0 0-.116-.092H7.071a.106.106 0 0 0-.116.092v.2a.106.106 0 0 0 .116.092z" transform="translate(.027 -9.895)"/>
                <path id="Path_157" data-name="Path 157" class="cls-3" d="M6.608 18.424H4.683a.106.106 0 0 0-.116.092v.2a.106.106 0 0 0 .116.092h1.925a.106.106 0 0 0 .116-.092v-.2a.106.106 0 0 0-.116-.092z" transform="translate(.018 -9.895)"/>
                <path id="Path_158" data-name="Path 158" class="cls-3" d="M2.294 18.81h1.923a.106.106 0 0 0 .116-.092v-.2a.106.106 0 0 0-.116-.092H2.294a.106.106 0 0 0-.116.092v.2a.106.106 0 0 0 .116.092z" transform="translate(.009 -9.895)"/>
                <path id="Path_159" data-name="Path 159" class="cls-3" d="M1.944 18.719v-.2a.106.106 0 0 0-.116-.092H0v.386h1.827a.106.106 0 0 0 .117-.094z" transform="translate(0 -9.895)"/>
            </g>
            <g id="Group_84" data-name="Group 84" transform="translate(10.633 8.42)">
                <path id="Path_160" data-name="Path 160" class="cls-5" d="M13.524 11.143a.59.59 0 0 0 .482-.1.6.6 0 0 0 .7.007.338.338 0 0 0 .135-.379.668.668 0 0 1-.791.148l-.044-.022a.692.692 0 0 1-.807-.09.4.4 0 0 0-.03-.036.391.391 0 0 0 .355.472z" transform="translate(-10.581 -10.667)"/>
                <path id="Path_161" data-name="Path 161" class="cls-5" d="M14.6 15.524a2.78 2.78 0 0 0 1.413-1.237 2.119 2.119 0 0 0-.741-2.708c-.032-.024-.08.008-.057.037a2.322 2.322 0 0 1-.853 3.525l.067-3.375a.139.139 0 0 0-.07-.118l-.228-.145a.231.231 0 0 0-.239 0l-.225.144a.139.139 0 0 0-.07.118l.065 3.377a2.325 2.325 0 0 1-.855-3.527c.023-.029-.025-.061-.057-.037a2.12 2.12 0 0 0-.741 2.707 2.779 2.779 0 0 0 1.413 1.237 4.33 4.33 0 0 1-1.222.152c-.044 0-.053.048-.011.058a3.928 3.928 0 0 0 1.587.045l.2.307a.043.043 0 0 0 .066 0l.2-.307a3.935 3.935 0 0 0 1.588-.045c.042-.01.033-.059-.011-.058a4.35 4.35 0 0 1-1.219-.15z" transform="translate(-10.586 -10.836)"/>
                <path id="Path_162" data-name="Path 162" class="cls-5" d="M17.092 12.368a2.582 2.582 0 0 0-1.463-.987c-.039-.011-.07.03-.038.05a2.3 2.3 0 0 1 .588 3.63 2.728 2.728 0 0 1-.172.169 1.9 1.9 0 0 0 1.085-2.862z" transform="translate(-10.571 -10.817)"/>
                <path id="Path_163" data-name="Path 163" class="cls-5" d="M11.83 15.061a2.3 2.3 0 0 1 .586-3.63c.032-.021 0-.061-.038-.05a2.586 2.586 0 0 0-1.461.987A1.9 1.9 0 0 0 12 15.231a1.706 1.706 0 0 1-.17-.17z" transform="translate(-10.591 -10.817)"/>
            </g>
        </g>
    </g>
</svg>
