<svg xmlns="http://www.w3.org/2000/svg" width="184" height="184">
    <defs>
        <clipPath id="clip-path">
            <path id="Rectangle_20" data-name="Rectangle 20" transform="translate(.066 .066)" style="stroke:#707070;fill:#fff" d="M0 0h119v119H0z"/>
        </clipPath>
        <style>
            .cls-8{fill:#fff}.cls-2{fill:#e8edfc}.cls-7{fill:#a4c2f7}.cls-9{fill:#428dff}
        </style>
    </defs>
    <g id="Group_93" data-name="Group 93" transform="translate(-114.346 -89.346)">
        <rect id="Rectangle_19" data-name="Rectangle 19" class="cls-2" width="184" height="184" rx="92" transform="translate(114.346 89.346)"/>
        <g id="Mask_Group_10" data-name="Mask Group 10" transform="translate(147.28 122.279)" style="clip-path:url(#clip-path)">
            <g id="_015-mobile" data-name="015-mobile" transform="translate(-.517 -.194)">
                <path id="Path_204" data-name="Path 204" class="cls-2" d="M75.4 164.995v7.989a13.981 13.981 0 0 1-13.981 13.981H17.481A13.981 13.981 0 0 1 3.5 172.984V161a13.981 13.981 0 0 0 13.981 13.981h43.94a13.981 13.981 0 0 0 13.4-9.986z" transform="translate(-1.503 -69.125)"/>
                <path id="Path_205" data-name="Path 205" d="M75.4 17.6v79.893h-.579a13.981 13.981 0 0 1-13.4 9.986h-43.94A13.981 13.981 0 0 1 3.5 93.5V17.6A13.929 13.929 0 0 1 15.544 3.78l3.1 7.73a7.222 7.222 0 0 0 6.806 4.09h28a7.222 7.222 0 0 0 6.811-4.094l3.1-7.729A13.929 13.929 0 0 1 75.4 17.6z" transform="translate(-1.503 -1.623)" style="fill:#c6d8fb"/>
                <path id="Path_206" data-name="Path 206" d="M119.883 17.6v79.893h-5.992V17.6A13.9 13.9 0 0 0 107.1 5.637l.739-1.857a13.929 13.929 0 0 1 12.044 13.82z" transform="translate(-45.983 -1.623)" style="fill:#a4c3fd"/>
                <path id="Path_207" data-name="Path 207" class="cls-2" d="m72.42 3.659-3.1 7.73a7.222 7.222 0 0 1-6.811 4.094h-28a7.222 7.222 0 0 1-6.809-4.094l-3.1-7.73a10.426 10.426 0 0 1 1.937-.16h43.94a10.426 10.426 0 0 1 1.937.16z" transform="translate(-10.564 -1.502)"/>
                <path id="Path_208" data-name="Path 208" class="cls-2" d="m139.5 47.932-33.694 18.375a13.961 13.961 0 0 1-13.382 0L58.73 47.932A15.94 15.94 0 0 1 71.153 42h55.924a15.94 15.94 0 0 1 12.423 5.932z" transform="translate(-25.216 -18.033)"/>
                <path id="Path_209" data-name="Path 209" class="cls-2" d="M140.381 62.441v39.946a15.978 15.978 0 0 1-15.981 15.978H68.478A15.978 15.978 0 0 1 52.5 102.387V62.441a15.906 15.906 0 0 1 3.555-10.046L89.749 70.77a13.961 13.961 0 0 0 13.382 0l33.694-18.375a15.906 15.906 0 0 1 3.555 10.046z" transform="translate(-22.541 -22.496)"/>
                <path id="Path_210" data-name="Path 210" d="m186.415 52.4-4.394 2.4a15.9 15.9 0 0 1 1.957 7.65v39.946A15.978 15.978 0 0 1 168 118.365h5.992a15.978 15.978 0 0 0 15.978-15.978V62.441a15.906 15.906 0 0 0-3.555-10.041z" transform="translate(-72.13 -22.496)" style="fill:#cad9fc"/>
                <circle id="Ellipse_10" data-name="Ellipse 10" class="cls-7" cx="3.995" cy="3.995" r="3.995" transform="translate(53.927 65.91)"/>
                <circle id="Ellipse_11" data-name="Ellipse 11" class="cls-7" cx="3.995" cy="3.995" r="3.995" transform="translate(85.883 65.91)"/>
                <path id="Path_211" data-name="Path 211" class="cls-7" d="M121 133h7.989a2 2 0 0 1 2 2v3.995a5.992 5.992 0 1 1-11.984 0V135a2 2 0 0 1 1.995-2z" transform="translate(-51.092 -57.103)"/>
                <path id="Path_212" data-name="Path 212" class="cls-8" d="M17.481 119.342h5.992a13.981 13.981 0 0 1-13.981-13.981v-87.88A13.929 13.929 0 0 1 21.535 3.659a10.426 10.426 0 0 1 1.937-.16h-5.991a10.426 10.426 0 0 0-1.937.16A13.929 13.929 0 0 0 3.5 17.481v87.881a13.981 13.981 0 0 0 13.981 13.98z" transform="translate(-1.503 -1.502)"/>
                <path id="Path_213" data-name="Path 213" class="cls-8" d="M0 28h3.995v15.978H0z" transform="translate(0 -12.022)"/>
                <g id="Group_94" data-name="Group 94">
                    <circle id="Ellipse_12" data-name="Ellipse 12" class="cls-9" cx="1.997" cy="1.997" r="1.997" transform="translate(0 21.97)"/>
                    <path id="Path_214" data-name="Path 214" class="cls-9" d="M101.862 21.97H75.9v-5.992A16 16 0 0 0 59.919 0H15.978A16 16 0 0 0 0 15.978a2 2 0 1 0 3.995 0A11.994 11.994 0 0 1 12.8 4.436l2.483 6.192a9.2 9.2 0 0 0 8.664 5.351h28a9.188 9.188 0 0 0 8.664-5.349L63.1 4.438a11.994 11.994 0 0 1 8.8 11.54v5.992H45.938A18 18 0 0 0 28.08 37.948h-10.1a2 2 0 1 0 0 3.995h9.986v5.992H21.97a2 2 0 1 0 0 3.995h5.992v5.992H9.986a2 2 0 1 0 0 3.995h17.976v5.992H21.97a2 2 0 1 0 0 3.995h5.992v5.992h-9.986a2 2 0 1 0 0 3.995h10.1a18 18 0 0 0 17.862 15.976h24.329a11.868 11.868 0 0 1-10.348 5.992H15.978A12 12 0 0 1 3.995 91.875V31.957a2 2 0 0 0-3.995 0v71.9a16 16 0 0 0 15.978 15.978h43.94A16 16 0 0 0 75.9 103.859v-5.992h25.965a18 18 0 0 0 17.976-17.976V39.946a18 18 0 0 0-17.979-17.976zM56.907 9.144a5.269 5.269 0 0 1-4.957 2.84h-28a5.269 5.269 0 0 1-4.957-2.84l-2-4.993H58.9zM45.938 25.965h55.924a13.908 13.908 0 0 1 9.156 3.44L79.634 46.521a11.934 11.934 0 0 1-11.468 0L36.78 29.406a13.909 13.909 0 0 1 9.158-3.441zM71.9 103.859a12 12 0 0 1-11.984 11.984H15.978a12 12 0 0 1-11.983-11.984v-1.45a15.93 15.93 0 0 0 11.984 5.445h43.94a15.852 15.852 0 0 0 11.981-5.439zm43.94-23.967a14 14 0 0 1-13.981 13.981H45.938a14 14 0 0 1-13.981-13.982V39.946a13.87 13.87 0 0 1 2.164-7.439l32.131 17.521a15.9 15.9 0 0 0 15.3 0l32.13-17.522a13.871 13.871 0 0 1 2.165 7.44z"/>
                    <path id="Path_215" data-name="Path 215" class="cls-9" d="M65 80.5a2 2 0 0 0-2 2v21.97a2 2 0 1 0 3.995 0V82.5a2 2 0 0 0-1.995-2z" transform="translate(-27.049 -34.562)"/>
                    <path id="Path_216" data-name="Path 216" class="cls-9" d="M65 133a2 2 0 0 0-2 2v3.995a2 2 0 1 0 3.995 0V135A2 2 0 0 0 65 133z" transform="translate(-27.049 -57.103)"/>
                    <path id="Path_217" data-name="Path 217" class="cls-9" d="M96.992 112a5.992 5.992 0 1 0 5.992 5.992A5.992 5.992 0 0 0 96.992 112zm0 7.989a2 2 0 1 1 2-2 2 2 0 0 1-2 2z" transform="translate(-39.071 -48.087)"/>
                    <path id="Path_218" data-name="Path 218" class="cls-9" d="M152.992 112a5.992 5.992 0 1 0 5.992 5.992 5.992 5.992 0 0 0-5.992-5.992zm0 7.989a2 2 0 1 1 2-2 2 2 0 0 1-2 2z" transform="translate(-63.114 -48.087)"/>
                    <path id="Path_219" data-name="Path 219" class="cls-9" d="M91.278 97.9a5.439 5.439 0 0 1 4.21-2.9 2 2 0 1 0 0-3.995 9.387 9.387 0 0 0-7.779 5.1 2 2 0 0 0 3.569 1.8z" transform="translate(-37.567 -39.071)"/>
                    <path id="Path_220" data-name="Path 220" class="cls-9" d="M156 91a2 2 0 1 0 0 3.995 5.433 5.433 0 0 1 4.21 2.9 2 2 0 1 0 3.569-1.8A9.387 9.387 0 0 0 156 91z" transform="translate(-66.119 -39.071)"/>
                    <path id="Path_221" data-name="Path 221" class="cls-9" d="M21.495 87.995a2 2 0 1 0 0-3.995h-2a2 2 0 1 0 0 3.995z" transform="translate(-7.514 -36.065)"/>
                    <path id="Path_222" data-name="Path 222" class="cls-9" d="M21.495 122.995a2 2 0 0 0 0-3.995h-2a2 2 0 0 0 0 3.995z" transform="translate(-7.514 -51.092)"/>
                    <path id="Path_223" data-name="Path 223" class="cls-9" d="M127.484 129.5h-7.989a4 4 0 0 0-3.995 3.995v3.995a7.989 7.989 0 1 0 15.978 0v-3.995a4 4 0 0 0-3.994-3.995zm0 7.989a3.995 3.995 0 1 1-7.989 0v-3.995h7.989z" transform="translate(-49.59 -55.6)"/>
                </g>
            </g>
        </g>
    </g>
</svg>
